<?xml version="1.0" standalone="no"?>
<!DOCTYPE svg PUBLIC "-//W3C//DTD SVG 20010904//EN"
 "http://www.w3.org/TR/2001/REC-SVG-20010904/DTD/svg10.dtd">
<svg version="1.0" xmlns="http://www.w3.org/2000/svg"
 width="700.000000pt" height="700.000000pt" viewBox="0 0 700.000000 700.000000"
 preserveAspectRatio="xMidYMid meet">
<metadata>
Created by potrace 1.11, written by Peter Selinger 2001-2013
</metadata>
<g transform="translate(0.000000,700.000000) scale(0.100000,-0.100000)"
fill="#000000" stroke="none">
<path d="M3340 6039 c-80 -44 -183 -101 -230 -126 -47 -26 -227 -124 -400
-218 -173 -95 -344 -188 -380 -207 -183 -99 -1533 -834 -1580 -861 -30 -17
-81 -44 -113 -61 -32 -17 -65 -36 -75 -41 -9 -6 -75 -41 -145 -79 l-129 -68
29 -17 c15 -10 163 -91 328 -181 375 -204 380 -207 493 -269 50 -28 94 -51 96
-51 2 0 46 -24 98 -54 52 -29 144 -79 204 -111 60 -32 125 -67 144 -78 64 -36
114 -64 180 -99 120 -64 664 -362 705 -385 22 -12 47 -26 55 -30 8 -3 78 -41
155 -83 138 -76 201 -111 340 -185 39 -21 133 -73 210 -115 77 -42 150 -80
162 -84 14 -4 36 1 65 17 63 35 358 196 548 300 91 49 188 102 215 117 28 15
77 42 110 60 33 18 78 43 100 55 22 12 162 89 310 170 149 81 340 186 425 233
85 46 178 97 205 112 28 15 120 65 205 112 85 47 187 102 225 123 39 21 105
57 148 81 42 23 78 40 78 36 1 -4 3 -455 4 -1002 1 -547 3 -999 4 -1005 1 -6
105 -10 291 -10 283 0 290 0 291 20 3 106 0 2317 -3 2321 -4 3 -538 296 -913
499 -38 21 -83 45 -100 55 -16 10 -66 37 -110 60 -44 24 -228 124 -410 223
-181 99 -359 196 -395 215 -36 19 -91 50 -123 68 -32 19 -60 34 -62 34 -2 0
-92 49 -202 108 -109 60 -238 131 -288 157 -49 27 -112 61 -138 77 -26 15 -50
28 -52 28 -2 0 -70 37 -152 81 -180 100 -258 139 -269 139 -5 -1 -74 -37 -154
-81z"/>
<path d="M1463 2571 l0 -589 76 -41 c42 -22 103 -56 136 -74 33 -18 105 -57
160 -87 55 -29 116 -62 135 -73 19 -11 141 -77 270 -147 129 -70 251 -136 270
-147 20 -11 71 -39 115 -63 100 -53 176 -94 240 -130 28 -15 79 -43 115 -63
69 -37 80 -43 342 -186 92 -50 173 -91 180 -91 8 0 22 6 33 13 11 8 65 38 120
67 55 30 132 71 170 92 39 22 88 48 110 59 22 11 49 26 60 32 11 7 65 36 120
66 55 30 115 63 133 73 19 10 73 39 120 65 48 25 92 49 97 53 6 4 55 31 110
60 55 29 114 60 130 70 17 10 64 35 105 57 41 22 120 65 175 95 55 30 136 74
180 98 44 24 112 61 150 82 39 21 104 57 146 79 l76 41 0 589 0 589 -31 -19
c-17 -10 -56 -32 -86 -48 -106 -57 -395 -216 -405 -223 -5 -4 -41 -24 -80 -44
-38 -20 -77 -41 -85 -46 -14 -9 -510 -281 -645 -355 -33 -18 -123 -67 -200
-110 -77 -42 -158 -87 -180 -99 -22 -13 -104 -57 -182 -100 l-142 -77 -33 17
c-29 15 -1050 576 -1168 641 -25 14 -74 41 -110 61 -58 31 -109 59 -282 156
-98 54 -241 132 -318 174 -36 19 -79 43 -96 53 l-31 18 0 -588z"/>
</g>
</svg>
